<svg width="33" height="33" viewBox="0 0 33 33" fill="none" xmlns="http://www.w3.org/2000/svg">
<path d="M19.5008 6.09524C19.5008 5.49035 19.0105 5 18.4056 5H14.0956C13.4908 5 13.0004 5.49035 13.0004 6.09524C13.0004 6.70012 13.4908 7.19048 14.0956 7.19048H18.4056C19.0105 7.19048 19.5008 6.70012 19.5008 6.09524ZM15.1672 18.1547C15.1672 18.753 15.6523 19.2381 16.2506 19.2381C16.849 19.2381 17.334 18.753 17.334 18.1547V13.7501C17.334 13.1517 16.849 12.6667 16.2506 12.6667C15.6523 12.6667 15.1672 13.1517 15.1672 13.7501V18.1547ZM24.4888 12.8803C24.1617 12.358 24.1927 11.6693 24.6261 11.2311L24.6444 11.2127C25.0759 10.7764 25.1081 10.0757 24.6779 9.63812C24.2445 9.19725 23.5414 9.23909 23.1066 9.67861C22.6727 10.1172 21.9782 10.1499 21.459 9.8165C19.9083 8.82044 18.1027 8.28543 16.2506 8.28571C10.8661 8.28571 6.5 12.6995 6.5 18.1429C6.5 23.5862 10.8553 28 16.2506 28C18.0862 28.001 19.8848 27.4778 21.4392 26.4907C22.9935 25.5036 24.2405 24.0927 25.0364 22.4206C25.8323 20.7484 26.1448 18.883 25.9379 17.0391C25.7714 15.5553 25.274 14.1341 24.4888 12.8803ZM16.2506 25.8095C12.0578 25.8095 8.6668 22.3814 8.6668 18.1429C8.6668 13.9043 12.0578 10.4762 16.2506 10.4762C20.4434 10.4762 23.8344 13.9043 23.8344 18.1429C23.8344 22.3814 20.4434 25.8095 16.2506 25.8095Z" fill="#7D7D7D"/>
</svg>
